<svg width="19" height="20" viewBox="0 0 19 20" fill="none" xmlns="http://www.w3.org/2000/svg">
<path d="M11.7485 16C11.0485 16 10.4569 15.7583 9.97354 15.275C9.4902 14.7917 9.24854 14.2 9.24854 13.5C9.24854 12.8 9.4902 12.2083 9.97354 11.725C10.4569 11.2417 11.0485 11 11.7485 11C12.4485 11 13.0402 11.2417 13.5235 11.725C14.0069 12.2083 14.2485 12.8 14.2485 13.5C14.2485 14.2 14.0069 14.7917 13.5235 15.275C13.0402 15.7583 12.4485 16 11.7485 16ZM2.24854 20C1.69854 20 1.2277 19.8042 0.836035 19.4125C0.444369 19.0208 0.248535 18.55 0.248535 18V4C0.248535 3.45 0.444369 2.97917 0.836035 2.5875C1.2277 2.19583 1.69854 2 2.24854 2H3.24854V1C3.24854 0.716667 3.34437 0.479167 3.53604 0.2875C3.7277 0.0958333 3.9652 0 4.24854 0C4.53187 0 4.76937 0.0958333 4.96104 0.2875C5.1527 0.479167 5.24854 0.716667 5.24854 1V2H13.2485V1C13.2485 0.716667 13.3444 0.479167 13.536 0.2875C13.7277 0.0958333 13.9652 0 14.2485 0C14.5319 0 14.7694 0.0958333 14.961 0.2875C15.1527 0.479167 15.2485 0.716667 15.2485 1V2H16.2485C16.7985 2 17.2694 2.19583 17.661 2.5875C18.0527 2.97917 18.2485 3.45 18.2485 4V18C18.2485 18.55 18.0527 19.0208 17.661 19.4125C17.2694 19.8042 16.7985 20 16.2485 20H2.24854ZM2.24854 18H16.2485V8H2.24854V18ZM2.24854 6H16.2485V4H2.24854V6Z" fill="#2A3647"/>
</svg>
