<svg width="70" height="70" viewBox="0 0 70 70" fill="none" xmlns="http://www.w3.org/2000/svg">
<circle cx="35" cy="35" r="34.5" fill="#2A3647"/>
<mask id="mask0_236693_6090" style="mask-type:alpha" maskUnits="userSpaceOnUse" x="19" y="19" width="32" height="32">
<rect x="19" y="19" width="32" height="32" fill="#D9D9D9"/>
</mask>
<g mask="url(#mask0_236693_6090)">
<path d="M25.6667 44.3332H27.5333L39.0333 32.8332L37.1667 30.9665L25.6667 42.4665V44.3332ZM44.7333 30.8998L39.0667 25.2998L40.9333 23.4332C41.4444 22.9221 42.0722 22.6665 42.8167 22.6665C43.5611 22.6665 44.1889 22.9221 44.7 23.4332L46.5667 25.2998C47.0778 25.8109 47.3444 26.4276 47.3667 27.1498C47.3889 27.8721 47.1444 28.4887 46.6333 28.9998L44.7333 30.8998ZM42.8 32.8665L28.6667 46.9998H23V41.3332L37.1333 27.1998L42.8 32.8665Z" fill="white"/>
</g>
</svg>
