<svg width="32" height="32" viewBox="0 0 32 32" fill="none" xmlns="http://www.w3.org/2000/svg">
<g clip-path="url(#clip0_236693_2616)">
<path d="M15.9997 17.2452C15.8003 17.2456 15.606 17.1837 15.4455 17.0686L7.877 11.6347C7.77852 11.5639 7.69535 11.475 7.63223 11.373C7.5691 11.2709 7.52726 11.1578 7.5091 11.0401C7.47241 10.8023 7.53439 10.5601 7.68138 10.3667C7.82838 10.1734 8.04835 10.0447 8.29292 10.0091C8.53749 9.97339 8.78661 10.0336 8.98549 10.1766L15.9997 15.2075L23.014 10.1766C23.1125 10.1058 23.2243 10.0546 23.3431 10.0258C23.462 9.9971 23.5855 9.9914 23.7066 10.0091C23.8277 10.0267 23.944 10.0674 24.0489 10.1288C24.1538 10.1901 24.2453 10.271 24.3181 10.3667C24.3909 10.4625 24.4436 10.5712 24.4731 10.6868C24.5027 10.8023 24.5085 10.9224 24.4904 11.0401C24.4722 11.1578 24.4304 11.2709 24.3672 11.373C24.3041 11.475 24.221 11.5639 24.1225 11.6347L16.554 17.0686C16.3934 17.1837 16.1992 17.2456 15.9997 17.2452Z" fill="#7AE229"/>
<path d="M16 22.0001C15.8006 22.0005 15.6063 21.9386 15.4457 21.8235L7.87724 16.3896C7.67837 16.2466 7.54603 16.0328 7.50934 15.795C7.47266 15.5572 7.53463 15.315 7.68163 15.1216C7.82862 14.9283 8.0486 14.7996 8.29317 14.7639C8.53773 14.7283 8.78686 14.7885 8.98574 14.9314L16 19.9624L23.0142 14.9314C23.2131 14.7885 23.4622 14.7283 23.7068 14.7639C23.9514 14.7996 24.1713 14.9283 24.3183 15.1216C24.4653 15.315 24.5273 15.5572 24.4906 15.795C24.4539 16.0328 24.3216 16.2466 24.1227 16.3896L16.5542 21.8235C16.3937 21.9386 16.1994 22.0005 16 22.0001Z" fill="#7AE229"/>
</g>
<defs>
<clipPath id="clip0_236693_2616">
<rect width="17" height="12" fill="white" transform="translate(7.5 10)"/>
</clipPath>
</defs>
</svg>
