<svg width="49" height="32" viewBox="0 0 49 32" fill="none" xmlns="http://www.w3.org/2000/svg">
<path d="M1 0.5V31.5" stroke="#D1D1D1"/>
<mask id="mask0_75609_15974" style="mask-type:alpha" maskUnits="userSpaceOnUse" x="17" y="0" width="32" height="32">
<rect x="17" width="32" height="32" fill="#D9D9D9"/>
</mask>
<g mask="url(#mask0_75609_15974)">
<path d="M30.7118 20.2137C28.8946 20.2137 27.3567 19.5843 26.098 18.3256C24.8393 17.0669 24.21 15.529 24.21 13.7118C24.21 11.8946 24.8393 10.3567 26.098 9.098C27.3567 7.83931 28.8946 7.20996 30.7118 7.20996C32.529 7.20996 34.0669 7.83931 35.3256 9.098C36.5843 10.3567 37.2137 11.8946 37.2137 13.7118C37.2137 14.4454 37.097 15.1372 36.8636 15.7874C36.6302 16.4376 36.3134 17.0127 35.9133 17.5129L41.5149 23.1145C41.6983 23.2979 41.79 23.5313 41.79 23.8147C41.79 24.0981 41.6983 24.3315 41.5149 24.5149C41.3315 24.6983 41.0981 24.79 40.8147 24.79C40.5313 24.79 40.2979 24.6983 40.1145 24.5149L34.5129 18.9133C34.0127 19.3134 33.4376 19.6302 32.7874 19.8636C32.1372 20.097 31.4454 20.2137 30.7118 20.2137ZM30.7118 18.2131C31.9622 18.2131 33.025 17.7755 33.9002 16.9002C34.7755 16.025 35.2131 14.9622 35.2131 13.7118C35.2131 12.4615 34.7755 11.3987 33.9002 10.5234C33.025 9.64815 31.9622 9.21053 30.7118 9.21053C29.4615 9.21053 28.3987 9.64815 27.5234 10.5234C26.6482 11.3987 26.2105 12.4615 26.2105 13.7118C26.2105 14.9622 26.6482 16.025 27.5234 16.9002C28.3987 17.7755 29.4615 18.2131 30.7118 18.2131Z" fill="#2A3647"/>
</g>
</svg>
