<svg width="32" height="32" viewBox="0 0 32 32" fill="none" xmlns="http://www.w3.org/2000/svg">
<g clip-path="url(#clip0_236693_2672)">
<path d="M16.0003 14.7548C16.1997 14.7544 16.394 14.8163 16.5545 14.9314L24.123 20.3653C24.2215 20.4361 24.3046 20.525 24.3678 20.627C24.4309 20.7291 24.4727 20.8422 24.4909 20.9599C24.5276 21.1977 24.4656 21.4399 24.3186 21.6333C24.1716 21.8266 23.9516 21.9553 23.7071 21.9909C23.4625 22.0266 23.2134 21.9664 23.0145 21.8234L16.0003 16.7925L8.98602 21.8234C8.88754 21.8942 8.7757 21.9454 8.65687 21.9742C8.53803 22.0029 8.41455 22.0086 8.29345 21.9909C8.17235 21.9733 8.05602 21.9326 7.95109 21.8712C7.84616 21.8099 7.75469 21.729 7.68191 21.6333C7.60912 21.5375 7.55644 21.4288 7.52688 21.3132C7.49732 21.1977 7.49146 21.0776 7.50962 20.9599C7.52779 20.8422 7.56963 20.7291 7.63275 20.627C7.69588 20.525 7.77905 20.4361 7.87752 20.3653L15.446 14.9314C15.6066 14.8163 15.8008 14.7544 16.0003 14.7548Z" fill="#FF3D00"/>
<path d="M16 9.99988C16.1994 9.99954 16.3937 10.0614 16.5543 10.1765L24.1228 15.6104C24.3216 15.7534 24.454 15.9672 24.4907 16.205C24.5273 16.4428 24.4654 16.685 24.3184 16.8784C24.1714 17.0717 23.9514 17.2004 23.7068 17.2361C23.4623 17.2717 23.2131 17.2115 23.0143 17.0686L16 12.0376L8.98577 17.0686C8.78689 17.2115 8.53777 17.2717 8.2932 17.2361C8.04863 17.2004 7.82866 17.0717 7.68166 16.8784C7.53467 16.685 7.47269 16.4428 7.50938 16.205C7.54606 15.9672 7.6784 15.7534 7.87728 15.6104L15.4458 10.1765C15.6063 10.0614 15.8006 9.99954 16 9.99988Z" fill="#FF3D00"/>
</g>
<defs>
<clipPath id="clip0_236693_2672">
<rect width="17" height="12" fill="white" transform="translate(24.5 22) rotate(-180)"/>
</clipPath>
</defs>
</svg>
